<?xml version="1.0" encoding="UTF-8"?>
<svg id="Layer_1" data-name="Layer 1" xmlns="http://www.w3.org/2000/svg" xmlns:xlink="http://www.w3.org/1999/xlink" viewBox="0 0 80 50">
  <defs>
    <style>
      .cls-1 {
        fill: #231f20;
      }

      .cls-2 {
        fill: url(#radial-gradient);
      }
    </style>
    <radialGradient id="radial-gradient" cx="47.88" cy="37.94" fx="47.88" fy="37.94" r="67.43" gradientTransform="translate(-20.78 39.9) rotate(-90) scale(.52 1.6)" gradientUnits="userSpaceOnUse">
      <stop offset="0" stop-color="#3e522d"/>
      <stop offset=".79" stop-color="#fff"/>
    </radialGradient>
  </defs>
  <path class="cls-2" d="M77.31,22.2c7.78,5.98-2.77,6.74-13.72,1.3-5.14-2.55-7.8,6.08-14.26,6.53-4.75.34-20.98-7.57-29.65-5.28-.93.25,1.3-4.64,5.04-5.8,6.51-2.01,7.07-2.37,9.71-3.49,4.59-1.95,9.15-3.62,17.62-2.15,3.41.6,5.23,2.41,9.99,3.33,2.09.4,14.23.26,15.95-.3,3.1-1,2.37-2.79-.49-3.86s-17.26-2.81-21.48-3.17c-11.61-.99-5.69,2.85-17.69,2.85-6.9,0-13.35-1.8-15.73-1.37s-4.44,1.12-5.17,1.97c-.98,1.15.54,2.35.98,3.53.29.77-3.03,1.73-3.21,2.5-.18.79,2.77,1.74,4.73,1.25,14.09-3.5,9.53,1.9,15.36,2.37-7.73.49-20.61,3.75-26.26,3.46-1.26-.06-3.19-.14-6.95-1.4-3.09-1.04-1.9-2.81-1.27-3.31,2.99-2.35,3.33-2.72,4.18-3.82,2.23-2.89,4.09-4.83-.63-7.39C-4,5.45,1.49,1.72,5.83.42c2.69-.81,11.59-.68,19.42,2.62C34.76,7.05,47.97,1.22,63.16.09c.68-.05.86-.07,2.17-.08.6,0,1.54,0,2.14,0,6.06-.02,7.87.67,9.74,1.44,3.04,1.26,4.76,4.14-1.67,5.25-1.55.27-2.05.41-5.26.65-5.7.41-19.25,3.15-11.51,7.68"/>
  <g>
    <path class="cls-1" d="M0,49.45v-1.34c1.18-.09,1.88-.17,2.1-.25.13-.04.23-.12.3-.22.09-.14.16-.34.19-.6.07-.6.14-1.9.19-3.91.03-.97.05-2.65.05-5.03,0-2.13-.02-4.01-.05-5.65-.03-1.64-.1-2.61-.2-2.93-.04-.15-.11-.26-.2-.34s-.26-.14-.51-.18c-.69-.12-1.31-.18-1.87-.2v-1.34c2.16.06,3.64.09,4.46.09,1.08,0,2.16-.03,3.25-.09l1.38,3.11,1.1,2.36,4.99,10.3c1.07-2.06,1.87-3.67,2.4-4.81l2.07-4.35c1.15-2.43,1.86-3.92,2.11-4.49.26-.56.55-1.27.87-2.13,1.37.07,2.25.11,2.64.11l4.68-.11v1.34h-.22c-1.05-.01-1.73.11-2.01.37-.28.26-.42.75-.42,1.49,0,.87,0,1.53-.02,1.98l-.08,4.41v5.51c0,1.34,0,2.12.01,2.36.09,1.33.16,2.15.22,2.45.03.15.09.26.18.35.08.09.2.16.36.2s.82.11,1.98.18v1.34l-5.01-.09-4.9.09v-1.34c1.3-.04,2.04-.12,2.22-.23s.31-.36.39-.74c.08-.39.12-1.69.12-3.9v-11.43l-3.64,7.37-1.75,3.66c-.46.96-1.11,2.36-1.95,4.19-.51,1.11-.92,2-1.21,2.69h-1.07c-.38-.88-.92-2.08-1.63-3.61-1.22-2.62-2.14-4.57-2.77-5.86l-4.13-8.43v7.71c0,1.29.02,2.82.05,4.59s.08,2.78.12,3.02.11.41.2.51c.09.1.25.19.47.27.23.07.87.14,1.92.2v1.34c-1.17-.06-2.37-.09-3.6-.09-1.6,0-2.87.03-3.82.09Z"/>
    <path class="cls-1" d="M32.72,44.5h1.26c.05,1.17.11,1.91.16,2.21.47.57.99,1,1.56,1.28.57.28,1.21.42,1.95.42.99,0,1.74-.24,2.26-.71s.79-1.04.79-1.71c0-.44-.09-.8-.26-1.09-.17-.29-.52-.55-1.04-.79-.41-.15-1.19-.35-2.35-.6-1.16-.25-2.03-.53-2.63-.83-.6-.31-1.06-.76-1.4-1.36-.33-.6-.5-1.31-.5-2.11,0-1.45.55-2.65,1.63-3.61s2.65-1.44,4.7-1.44c.85,0,1.63.07,2.34.22.71.15,1.36.37,1.93.66l.05.16c-.06.37-.11.74-.14,1.12s-.08,1.27-.14,2.67l-1.21-.02c-.01-.12-.03-.31-.05-.58-.03-.47-.09-.93-.19-1.37-.33-.42-.72-.73-1.2-.94-.48-.21-1.03-.31-1.67-.31-.89,0-1.58.2-2.06.6-.49.4-.73.87-.73,1.43s.11.98.33,1.26c.22.27.55.48.97.61.43.13,1.22.31,2.38.53,1.16.22,1.93.39,2.33.54.58.22,1.04.5,1.38.83.35.33.61.75.79,1.25.18.5.28,1.05.28,1.64,0,1.56-.6,2.87-1.82,3.94-1.21,1.07-2.91,1.6-5.1,1.6-.73,0-1.45-.07-2.14-.2-.69-.13-1.53-.37-2.53-.71l-.17-.24c.08-.81.14-1.38.16-1.71l.09-2.64Z"/>
    <path class="cls-1" d="M49.32,44.9c.68,0,1.26.24,1.73.71s.72,1.05.72,1.74-.24,1.26-.72,1.74c-.48.48-1.06.72-1.73.72s-1.26-.24-1.74-.72c-.48-.48-.72-1.06-.72-1.74s.24-1.26.71-1.74c.48-.48,1.06-.71,1.75-.71Z"/>
    <path class="cls-1" d="M63.55,49.45v-.8c.27-.12.66-.32,1.15-.61.22-.13.36-.23.42-.31.04-.05.07-.11.08-.17.05-.26.1-1.2.14-2.8.04-1.61.06-3.54.06-5.79,0-3.31-.01-5.35-.03-6.13-.04-1.97-.11-3.09-.2-3.38-.04-.13-.12-.22-.24-.28-.24-.16-1.04-.26-2.4-.31v-1.38c1.33.06,2.85.09,4.56.09,1.91,0,3.71-.03,5.42-.09v1.38c-1.18.05-1.91.15-2.17.28-.11.06-.2.16-.25.31s-.1.79-.15,1.94c-.04,1.15-.07,2.61-.07,4.37,0,.19,0,1.7.02,4.54.01,1.5.02,2.98.02,4.45,0,1.47.01,2.37.02,2.68,1.45.06,2.43.09,2.95.09,1.59,0,2.98-.09,4.16-.28.43-.06.69-.13.77-.2.08-.07.17-.27.27-.58.21-.8.41-1.71.61-2.73h1.3c-.03.29-.05.46-.05.52l-.39,3.17c-.08.99-.13,1.59-.14,1.79-.3.08-.61.14-.91.17-.64.05-1.63.08-2.97.08-.19,0-1.42-.03-3.69-.08-1.73-.04-2.93-.06-3.61-.06-1.03,0-2.59.05-4.68.14Z"/>
  </g>
</svg>